{"title":"American Gothic 2016 S01E09 1080p WEB-DL HEVC DD5.1 x265","uid":15661905,"size":748838234,"categoryP":"video","categoryS":"tv_shows","magnet":"?xt=urn:btih:7c10d74038f2e89ee62e5b9e9c60d13bc87b4d68&amp;dn=American+Gothic+2016+S01E09+1080p+WEB-DL+HEVC+DD5.1+x265&amp;tr=udp%3A%2F%2Ftracker.leechers-paradise.org%3A6969&amp;tr=udp%3A%2F%2Fzer0day.ch%3A1337&amp;tr=udp%3A%2F%2Fopen.demonii.com%3A1337&amp;tr=udp%3A%2F%2Ftracker.coppersurfer.tk%3A6969&amp;tr=udp%3A%2F%2Fexodus.desync.com%3A6969","seeders":0,"leechers":3,"uploader":"nayhtut","files":1,"time":1472183517,"description":"Source:American Gothic 2016 S01E09 TheOxbow 1080p WEB.DL DD5.1 H.264.R2D2 (1.73 GB)\r\n\r\n\r\n__--__--__--__--__--__--__--__--__--__--__--__--__--\r\n\r\n\r\nComplete name                            : American.Gothic.2016.S01E09.The.Oxbow.1080p.WEB-DL.HEVC.DD5.1.x265.mkv\r\nFormat                                   : Matroska\r\nFormat version                           : Version 4 / Version 2\r\nFile size                                : 714 MiB\r\nDuration                                 : 43mn 22s\r\nOverall bit rate                         : 2 302 Kbps\r\nWriting application                      : Lavf57.25.100\r\nWriting library                          : Lavf57.25.100\r\n\r\nVideo\r\n\r\nID                                       : 1\r\nFormat                                   : V_MPEGH/ISO/HEVC\r\nCodec ID                                 : V_MPEGH/ISO/HEVC\r\nDuration                                 : 43mn 22s\r\nBit rate                                 : 1 872 Kbps\r\nWidth                                    : 1 920 pixels\r\nHeight                                   : 1 080 pixels\r\nDisplay aspect ratio                     : 16:9\r\nFrame rate                               : 25.000 fps\r\nBits/(Pixel*Frame)                       : 0.036\r\nStream size                              : 581 MiB (81%)\r\nWriting library                          : Lavc57.48.101 libx265\r\nLanguage                                 : English\r\nDefault                                  : Yes\r\nForced                                   : No\r\nDURATION                                 : 00:43:22.371000000\r\nNUMBER_OF_FRAMES                         : 62393\r\nNUMBER_OF_BYTES                          : 1678275233\r\n_STATISTICS_WRITING_APP                  : mkvmerge v7.2.0 ('On Every Street') 64bit built on Sep 13 2014 15:52:10\r\n_STATISTICS_WRITING_DATE_UTC             : 2016-08-20 13:58:31\r\n_STATISTICS_TAGS                         : BPS DURATION NUMBER_OF_FRAMES NUMBER_OF_BYTES\r\n\r\nAudio\r\nID                                       : 2\r\nFormat                                   : AC-3\r\nFormat/Info                              : Audio Coding 3\r\nMode extension                           : CM (complete main)\r\nFormat settings, Endianness              : Big\r\nCodec ID                                 : A_AC3\r\nDuration                                 : 43mn 22s\r\nBit rate mode                            : Constant\r\nBit rate                                 : 384 Kbps\r\nChannel(s)                               : 6 channels\r\nChannel positions                        : Front: L C R, Side: L R, LFE\r\nSampling rate                            : 48.0 KHz\r\nBit depth                                : 16 bits\r\nCompression mode                         : Lossy\r\nStream size                              : 119 MiB (17%)\r\nWriting library                          : Lavc57.24.102 ac3\r\nLanguage                                 : English\r\nDefault                                  : Yes\r\nForced                                   : No\r\nDURATION                                 : 00:43:22.335000000\r\nNUMBER_OF_FRAMES                         : 81321\r\nNUMBER_OF_BYTES                          : 124909056\r\n_STATISTICS_WRITING_APP                  : mkvmerge v7.2.0 ('On Every Street') 64bit built on Sep 13 2014 15:52:10\r\n_STATISTICS_WRITING_DATE_UTC             : 2016-08-20 13:58:31\r\n_STATISTICS_TAGS                         : BPS DURATION NUMBER_OF_FRAMES NUMBER_OF_BYTES\r\n\r\nText\r\n\r\nID                                       : 3\r\nFormat                                   : ASS\r\nCodec ID                                 : S_TEXT/ASS\r\nCodec ID/Info                            : Advanced Sub Station Alpha\r\nCompression mode                         : Lossless\r\nWriting library                          : Lavc57.48.101 ssa\r\nLanguage                                 : English\r\nDefault                                  : No\r\nForced                                   : No\r\nDURATION                                 : 00:42:50.384000000\r\nNUMBER_OF_FRAMES                         : 832\r\nNUMBER_OF_BYTES                          : 29277\r\n_STATISTICS_WRITING_APP                  : mkvmerge v7.2.0 ('On Every Street') 64bit built on Sep 13 2014 15:52:10\r\n_STATISTICS_WRITING_DATE_UTC             : 2016-08-20 13:58:31\r\n_STATISTICS_TAGS                         : BPS DURATION NUMBER_OF_FRAMES NUMBER_OF_BYTES","torrent":{"xt":"urn:btih:7c10d74038f2e89ee62e5b9e9c60d13bc87b4d68","amp;dn":"American+Gothic+2016+S01E09+1080p+WEB-DL+HEVC+DD5.1+x265","amp;tr":["udp%3A%2F%2Ftracker.leechers-paradise.org%3A6969","udp%3A%2F%2Fzer0day.ch%3A1337","udp%3A%2F%2Fopen.demonii.com%3A1337","udp%3A%2F%2Ftracker.coppersurfer.tk%3A6969","udp%3A%2F%2Fexodus.desync.com%3A6969"],"infoHash":"7c10d74038f2e89ee62e5b9e9c60d13bc87b4d68","infoHashBuffer":{"type":"Buffer","data":[124,16,215,64,56,242,232,158,230,46,91,158,156,96,209,59,200,123,77,104]},"announce":[],"urlList":[]}}